#!OML:ASF E:\Steps\Project 1\Capture day 1\Session 2\Subject.ASF
:FULLY-SPECIFIED
:DEGREES
350
root 4.51612 17.9209 18.0288 -151.31 0.238184 179.327
lowerback -16.0547 -3.52387 -7.28371
upperback 2.84231 -3.27814 0.685111
thorax 12.7246 -2.09361 4.00585
lowerneck -2.22833 0.232803 -0.77695
upperneck 22.1585 1.49033 3.19731
head 7.09481 1.52192 1.34446
rclavicle -2.50469e-014 -4.77083e-014
rhumerus -50.1539 -20.8468 -65.8251
rradius 41.7712
rwrist -1.45303
rhand -4.6748 -51.1862
rfingers 7.12502
rthumb 21.1058 -80.0575
lclavicle -2.50469e-014 -4.77083e-014
lhumerus -28.0636 -7.16786 75.3504
lradius 42.188
lwrist 4.91327
lhand -22.6663 -14.1985
lfingers 7.12502
lthumb 3.76538 15.7479
rfemur -48.8031 5.35387 8.98728
rtibia 57.1578
rfoot -16.9494 -15.6416
rtoes -19.7535
lfemur -41.3267 -6.43488 -16.2474
ltibia 23.6514
lfoot -9.00979 1.45051
ltoes -19.3673
351
root 4.47293 17.9328 18.0029 -151.503 0.604885 179.35
lowerback -16.1199 -3.54917 -7.32647
upperback 2.66204 -3.30406 0.713824
thorax 12.5633 -2.09951 4.05722
lowerneck -1.08281 0.223982 -1.0484
upperneck 21.8138 1.53133 3.3107
head 6.77732 1.53907 1.41212
rclavicle -3.33958e-014 -9.54166e-015
rhumerus -50.5115 -20.5039 -65.6903
rradius 41.7284
rwrist -1.29129
rhand -4.85451 -51.0514
rfingers 7.12502
rthumb 20.9332 -79.9419
lclavicle -3.33958e-014 -9.54166e-015
lhumerus -28.7903 -7.15156 75.8372
lradius 41.6467
lwrist 4.70968
lhand -22.8685 -14.2675
lfingers 7.12502
lthumb 3.57013 15.6824
rfemur -48.7458 5.99982 10.0533
rtibia 56.4081
rfoot -17.4845 -14.9505
rtoes -20.7989
lfemur -40.6146 -6.2979 -16.5536
ltibia 23.0206
lfoot -8.85477 1.53235
ltoes -19.1486
352
root 4.41985 17.9427 17.9821 -151.667 0.857985 179.345
lowerback -15.9485 -3.46554 -7.00613
upperback 2.70116 -3.25407 0.580152
thorax 12.4675 -2.04508 3.74644
lowerneck -1.79129 0.0987887 -1.00214
upperneck 22.352 1.34437 3.3971
head 7.08074 1.47108 1.43901
rclavicle -2.5842e-014 1.59028e-015
rhumerus -50.3739 -20.7308 -65.838
rradius 41.6941
rwrist -1.25349
rhand -5.0983 -51.0175
rfingers 7.12502
rthumb 20.699 -79.9336
lclavicle -2.5842e-014 1.59028e-015
lhumerus -28.897 -7.45679 76.1127
lradius 41.2582
lwrist 4.73361
lhand -22.8401 -14.1478
lfingers 7.12502
lthumb 3.59748 15.8016
rfemur -48.5991 6.39317 11.1056
rtibia 55.4852
rfoot -18.0122 -14.366
rtoes -23.1326
lfemur -39.9998 -6.2045 -16.9457
ltibia 22.4725
lfoot -8.711 1.48647
ltoes -18.7388
353
root 4.39889 17.9487 17.9459 -151.879 1.36305 179.589
lowerback -16.4553 -3.3169 -7.00243
upperback 3.07424 -3.00287 0.537599
thorax 13.1657 -1.95422 3.73983
lowerneck -2.45171 0.0052158 -0.594393
upperneck 22.5264 1.16209 3.2516
head 7.26261 1.39589 1.31916
rclavicle -1.86858e-014 -1.98785e-014
rhumerus -49.8462 -21.1827 -66.11
rradius 41.6407
rwrist -1.26688
rhand -5.07979 -51.2082
rfingers 7.12502
rthumb 20.7167 -80.1225
lclavicle -1.86858e-014 -1.98785e-014
lhumerus -28.5155 -7.88357 76.3803
lradius 40.8023
lwrist 4.82513
lhand -22.6283 -13.8219
lfingers 7.12502
lthumb 3.80207 16.1239
rfemur -48.5129 7.52254 12.2526
rtibia 54.558
rfoot -18.573 -13.9677
rtoes -24.2305
lfemur -39.2332 -5.70702 -16.9294
ltibia 21.7864
lfoot -8.63999 1.60149
ltoes -18.7741
354
root 4.35343 17.9585 17.925 -151.939 1.70393 179.455
lowerback -16.6818 -3.39128 -7.06165
upperback 3.01592 -3.06882 0.520534
thorax 13.2447 -1.9874 3.72852
lowerneck -2.01409 0.172371 -1.0374
upperneck 22.2757 1.41616 3.35386
head 7.0935 1.48479 1.43496
rclavicle 3.18055e-015 8.74653e-015
rhumerus -49.8673 -20.9114 -66.114
rradius 41.7279
rwrist -1.29318
rhand -5.01252 -51.5038
rfingers 7.12502
rthumb 20.7814 -80.4109
lclavicle 3.18055e-015 8.74653e-015
lhumerus -28.9167 -7.92843 76.8422
lradius 40.306
lwrist 4.89325
lhand -22.5688 -13.731
lfingers 7.12502
lthumb 3.85949 16.2138
rfemur -48.5006 8.12674 12.9062
rtibia 53.5477
rfoot -19.1311 -13.2803
rtoes -23.9406
lfemur -38.7468 -5.75366 -17.3383
ltibia 21.204
lfoot -8.5578 1.74641
ltoes -18.3631
